<?xml version="1.0" standalone="no"?>
<!DOCTYPE svg PUBLIC "-//W3C//DTD SVG 20010904//EN"
 "http://www.w3.org/TR/2001/REC-SVG-20010904/DTD/svg10.dtd">
<svg version="1.0" xmlns="http://www.w3.org/2000/svg"
 width="512.000000pt" height="512.000000pt" viewBox="0 0 512.000000 512.000000"
 preserveAspectRatio="xMidYMid meet">

<g transform="translate(0.000000,512.000000) scale(0.100000,-0.100000)"
fill="#000000" stroke="none">
<path d="M2473 4945 c-61 -17 -120 -45 -180 -87 -114 -77 -132 -82 -328 -89
-231 -8 -266 -18 -350 -102 -45 -45 -76 -90 -114 -165 -68 -131 -112 -175
-243 -243 -75 -38 -120 -69 -165 -114 -84 -84 -94 -119 -102 -350 -7 -200 -7
-202 -99 -344 -116 -178 -116 -324 0 -502 92 -142 92 -144 99 -344 7 -228 18
-265 104 -351 44 -44 88 -75 163 -113 123 -64 175 -112 230 -218 23 -43 51
-94 63 -114 l22 -37 -227 -622 c-124 -342 -226 -631 -226 -641 0 -22 38 -65
65 -73 12 -3 112 25 239 69 121 41 222 72 226 70 4 -2 60 -92 125 -199 116
-190 138 -216 184 -216 47 0 59 28 289 659 l227 625 85 0 85 0 227 -625 c230
-631 242 -659 289 -659 46 0 68 26 184 216 65 107 122 197 126 199 4 3 106
-29 227 -70 179 -62 224 -74 245 -66 28 11 57 47 57 72 0 9 -102 297 -226 639
l-227 622 22 37 c12 20 40 71 63 114 54 104 104 151 229 217 73 38 122 73 164
115 85 84 97 122 105 350 3 99 11 192 18 207 6 15 36 67 67 115 77 121 98 181
98 273 0 92 -21 152 -98 273 -31 48 -61 100 -67 115 -7 15 -15 108 -18 207 -8
228 -20 265 -105 351 -43 43 -89 76 -164 115 -132 68 -175 111 -242 241 -38
75 -69 120 -114 165 -84 84 -119 94 -350 102 -200 7 -202 7 -344 99 -121 79
-238 105 -338 77z m161 -166 c31 -11 79 -36 107 -56 29 -19 86 -52 128 -71
l76 -36 185 -7 c102 -3 196 -10 210 -16 43 -18 103 -93 150 -188 62 -124 151
-213 275 -275 94 -47 170 -107 188 -150 6 -14 13 -108 16 -210 l6 -185 36 -76
c20 -42 53 -99 72 -128 37 -53 77 -148 77 -181 0 -33 -40 -128 -77 -181 -19
-29 -52 -86 -72 -128 l-36 -76 -6 -185 c-3 -102 -10 -196 -16 -210 -18 -43
-94 -103 -188 -150 -124 -62 -213 -151 -275 -275 -47 -95 -107 -170 -150 -188
-14 -6 -108 -13 -210 -16 l-185 -7 -76 -36 c-42 -19 -99 -52 -128 -71 -53 -37
-148 -77 -181 -77 -33 0 -128 40 -181 77 -29 19 -86 52 -128 72 l-76 36 -185
6 c-102 3 -196 10 -210 16 -43 18 -103 94 -150 188 -62 124 -151 213 -275 275
-95 47 -170 107 -188 150 -6 14 -13 108 -16 210 l-7 185 -36 76 c-19 42 -52
99 -71 128 -37 53 -77 148 -77 181 0 33 40 128 77 181 19 29 52 86 71 128 l36
76 7 185 c3 102 10 196 16 210 18 43 93 103 188 150 124 62 213 151 275 275
47 95 107 170 150 188 14 6 108 13 210 16 l185 7 78 37 c43 20 97 50 121 67
48 35 150 79 183 80 12 0 47 -9 77 -21z m-859 -3134 c38 -9 113 -15 201 -15
96 0 154 -5 182 -14 56 -20 174 -96 169 -110 -128 -364 -393 -1074 -399 -1068
-5 5 -48 73 -96 153 -60 97 -97 148 -115 157 -25 12 -43 8 -198 -43 -94 -32
-173 -55 -176 -51 -3 3 72 218 167 478 95 260 177 485 182 501 11 31 6 30 83
12z m1653 -12 c5 -16 87 -241 182 -501 95 -260 170 -475 167 -478 -3 -3 -82
20 -175 51 -157 53 -172 56 -198 44 -19 -10 -55 -58 -116 -158 -48 -80 -91
-148 -96 -153 -6 -6 -271 704 -399 1068 -5 14 113 90 169 110 27 9 88 14 187
15 83 1 168 6 196 14 71 18 72 18 83 -12z"/>
<path d="M2420 4474 c-293 -38 -560 -167 -763 -371 -476 -475 -502 -1239 -60
-1743 495 -563 1356 -588 1875 -52 196 202 313 436 352 703 60 408 -69 797
-363 1090 -182 182 -382 293 -631 350 -83 19 -331 33 -410 23z m315 -169 c467
-75 826 -424 927 -900 16 -77 16 -333 0 -410 -98 -461 -436 -799 -897 -897
-77 -16 -333 -16 -410 0 -348 74 -626 281 -783 580 -173 331 -175 697 -7 1032
214 427 696 672 1170 595z"/>
<path d="M2527 4068 c-25 -9 -44 -42 -139 -237 -61 -124 -112 -227 -113 -229
-1 -1 -110 -18 -241 -38 -132 -19 -247 -37 -256 -40 -24 -7 -58 -53 -58 -77 0
-14 66 -87 187 -209 l187 -188 -42 -250 c-35 -205 -40 -254 -31 -273 17 -30
40 -46 68 -47 13 0 122 52 242 115 120 63 223 115 230 115 6 0 109 -52 229
-115 119 -63 225 -115 233 -115 29 0 65 22 76 47 9 20 3 74 -31 274 l-43 250
180 179 c99 98 184 188 189 200 12 26 -5 64 -36 84 -13 8 -129 30 -267 50
-135 20 -245 37 -246 39 -1 1 -52 104 -113 228 -101 208 -113 227 -143 238
-17 6 -32 11 -33 10 -1 0 -14 -5 -29 -11z m125 -433 c102 -203 69 -181 323
-216 88 -12 162 -23 163 -25 2 -1 -57 -62 -132 -135 -75 -72 -139 -142 -142
-155 -3 -13 8 -105 25 -206 16 -100 29 -183 27 -185 -1 -1 -76 36 -166 84 -90
47 -175 86 -190 86 -14 0 -99 -39 -189 -86 -91 -48 -166 -85 -167 -84 -2 2 11
85 27 185 17 101 28 193 25 206 -3 12 -67 82 -141 155 -75 73 -135 134 -133
135 2 2 75 13 163 25 254 35 221 13 323 216 48 96 89 175 92 175 3 0 44 -79
92 -175z"/>
</g>
</svg>
