<?xml version="1.0" standalone="no"?>
<!DOCTYPE svg PUBLIC "-//W3C//DTD SVG 20010904//EN"
 "http://www.w3.org/TR/2001/REC-SVG-20010904/DTD/svg10.dtd">
<svg version="1.0" xmlns="http://www.w3.org/2000/svg"
 width="512.000000pt" height="512.000000pt" viewBox="0 0 512.000000 512.000000"
 preserveAspectRatio="xMidYMid meet">

<g transform="translate(0.000000,512.000000) scale(0.100000,-0.100000)"
fill="#000000" stroke="none">
<path d="M788 4950 c-219 -37 -402 -208 -453 -421 -9 -39 -15 -113 -15 -190
l0 -126 -40 -27 c-111 -73 -152 -234 -92 -352 20 -40 103 -124 122 -124 6 0
10 -87 10 -253 0 -325 14 -380 127 -498 65 -69 164 -120 275 -143 111 -23 841
-23 950 -1 154 32 287 121 345 232 51 97 55 122 62 387 l6 249 47 15 c105 33
183 143 183 257 0 34 -8 81 -18 107 -24 62 -109 140 -170 157 l-44 13 -6 136
c-5 145 -17 194 -72 302 -41 81 -144 179 -235 223 -125 62 -169 67 -575 66
-198 -1 -381 -5 -407 -9z m785 -160 c177 -29 308 -160 337 -337 6 -32 10 -93
10 -135 l0 -78 -721 0 -721 0 4 128 c3 118 5 132 35 194 56 118 170 207 290
228 68 11 696 12 766 0z m486 -716 c39 -8 87 -54 94 -90 8 -41 -11 -90 -44
-118 l-31 -26 -834 0 c-727 0 -839 2 -864 15 -88 46 -72 186 24 214 35 10
1606 14 1655 5z m-139 -474 l0 -80 -125 0 c-90 0 -134 -4 -153 -14 -15 -8 -67
-55 -117 -105 l-90 -91 -102 102 -103 103 -375 3 -375 3 0 79 0 80 720 0 720
0 0 -80z m-635 -360 c106 -105 126 -120 155 -120 29 0 49 15 155 120 l121 120
103 0 104 0 -7 -82 c-12 -139 -60 -216 -170 -269 -100 -48 -133 -50 -583 -47
-408 3 -419 4 -475 26 -80 32 -139 81 -173 143 -24 45 -30 68 -33 142 l-4 87
343 0 343 0 121 -120z"/>
<path d="M3287 3750 c-102 -17 -201 -83 -260 -173 -108 -162 -84 -372 58 -506
75 -71 146 -102 248 -108 67 -4 94 -1 146 17 154 52 253 173 276 337 20 150
-78 325 -221 397 -44 21 -157 48 -189 45 -5 -1 -32 -5 -58 -9z m168 -176 c45
-18 101 -75 121 -122 24 -55 22 -148 -4 -198 -61 -119 -197 -166 -318 -110
-140 65 -179 254 -77 367 76 84 175 106 278 63z"/>
<path d="M2355 3321 c-16 -10 -37 -27 -46 -37 -19 -21 -421 -660 -444 -705
-21 -40 -19 -117 4 -155 13 -21 78 -69 199 -145 l180 -114 -231 -5 c-265 -6
-291 -12 -355 -86 -83 -94 -82 -235 3 -320 l27 -27 -75 -75 -75 -75 -49 35
c-199 145 -473 185 -715 102 -447 -152 -665 -665 -463 -1091 47 -101 87 -157
168 -235 l69 -68 -162 0 c-200 0 -230 -11 -230 -86 0 -14 11 -36 25 -49 l24
-25 1068 0 c860 1 1071 3 1085 14 29 21 40 64 26 94 -25 51 -33 52 -463 52
l-400 0 86 88 c72 74 93 104 136 192 48 98 83 207 83 258 0 20 5 22 56 22 68
0 89 10 103 51 22 63 -24 109 -111 109 -40 0 -48 3 -48 18 0 37 -41 178 -69
237 -15 34 -45 85 -66 114 l-38 53 109 109 109 109 219 -2 219 -3 39 -143 39
-143 -196 -308 c-108 -170 -200 -324 -205 -342 -32 -111 20 -232 122 -285 77
-40 189 -26 257 32 39 34 485 722 517 800 19 46 22 34 -72 374 l-76 276 103
161 c57 89 107 159 110 155 4 -4 23 -60 43 -124 60 -194 80 -208 301 -208 85
0 155 -2 155 -5 0 -2 -129 -212 -287 -467 -307 -496 -314 -509 -264 -549 29
-24 78 -24 103 -2 10 9 159 243 330 520 l312 504 65 -3 66 -3 23 -100 c18 -78
20 -101 10 -104 -7 -2 -53 -25 -103 -50 -72 -36 -108 -64 -181 -136 -177 -175
-255 -373 -241 -615 6 -112 25 -189 72 -287 46 -99 87 -156 168 -236 l68 -67
-201 0 c-157 0 -207 -3 -229 -15 -48 -24 -56 -81 -16 -120 l24 -25 868 0 c696
1 871 3 885 14 29 21 40 64 26 94 -22 45 -50 52 -223 52 l-160 0 86 89 c72 75
95 107 137 193 65 132 85 220 85 362 -1 206 -60 360 -200 523 -145 168 -360
265 -588 267 l-110 1 -21 92 -21 93 33 19 c71 42 123 157 108 240 -14 77 -66
143 -139 177 -48 23 -59 24 -287 24 l-236 0 -28 83 c-15 45 -49 147 -77 225
l-50 144 -81 52 c-172 111 -643 404 -673 420 -43 21 -111 20 -148 -3z m267
-257 c101 -63 183 -118 183 -122 0 -5 -386 -620 -420 -670 -6 -8 -370 232
-369 243 2 16 407 664 416 665 3 0 89 -52 190 -116z m419 -263 l84 -53 69
-202 c38 -110 78 -216 88 -234 11 -18 37 -41 59 -52 35 -18 59 -20 282 -20
l244 0 23 -25 c33 -35 31 -81 -4 -112 l-27 -23 -342 0 -342 0 -114 373 c-134
437 -127 411 -115 406 6 -2 48 -28 95 -58z m-243 -474 c-181 -281 -218 -347
-218 -386 0 -20 36 -164 79 -320 l78 -284 -233 -367 c-234 -368 -243 -379
-297 -380 -28 0 -67 45 -67 78 0 20 54 114 181 313 212 332 229 362 229 404 0
17 -33 153 -74 301 -41 148 -76 277 -78 287 -2 9 93 168 212 357 l215 340 32
-100 32 -100 -91 -143z m-563 -354 c3 -16 12 -52 19 -80 l13 -53 -229 0 -229
0 -24 25 c-27 26 -32 70 -12 96 27 35 51 38 254 39 l203 0 5 -27z m-1045 -395
c60 -15 124 -42 188 -81 l52 -31 -235 -236 c-210 -211 -235 -239 -235 -268 0
-22 9 -41 25 -57 l24 -25 332 0 331 0 -6 -37 c-23 -132 -103 -274 -204 -362
-314 -278 -812 -181 -996 193 -121 246 -74 536 119 731 160 161 386 226 605
173z m3040 0 c25 -6 83 -28 130 -51 120 -56 230 -167 288 -287 51 -108 66
-172 66 -285 1 -351 -286 -636 -638 -635 -250 1 -483 154 -584 385 -98 226
-53 496 115 685 63 70 230 176 249 158 2 -3 36 -142 75 -309 38 -167 76 -314
85 -326 31 -48 106 -42 130 10 14 31 11 47 -59 349 -49 210 -70 319 -63 323
15 7 152 -4 206 -17z m-2626 -328 c24 -47 50 -122 61 -177 l7 -33 -219 0 -218
0 155 155 154 154 19 -27 c10 -15 28 -47 41 -72z"/>
<path d="M965 1430 c-386 -63 -540 -534 -265 -810 146 -145 369 -181 556 -89
59 30 162 123 170 155 10 39 -4 73 -37 90 -43 22 -69 12 -138 -49 -134 -120
-313 -116 -437 7 -157 158 -110 420 93 513 42 19 74 26 139 28 88 2 109 11
125 52 10 27 -6 80 -30 92 -26 14 -121 20 -176 11z"/>
<path d="M4200 1368 c-12 -13 -20 -35 -20 -54 0 -27 8 -39 37 -61 21 -15 61
-51 90 -80 43 -43 56 -64 74 -123 27 -90 22 -150 -21 -237 -55 -112 -157 -173
-288 -173 -117 0 -223 67 -280 175 -23 43 -27 62 -27 140 0 74 4 97 23 133 68
129 65 119 50 149 -19 39 -59 60 -95 47 -33 -11 -82 -81 -114 -162 -33 -82
-33 -252 0 -334 68 -174 228 -292 411 -305 307 -22 556 245 510 545 -33 213
-261 435 -350 340z"/>
<path d="M2605 308 c-51 -27 -60 -84 -20 -123 23 -24 28 -25 172 -25 160 1
174 5 193 54 13 35 -4 75 -40 93 -32 16 -276 17 -305 1z"/>
</g>
</svg>
