<?xml version="1.0" standalone="no"?>
<!DOCTYPE svg PUBLIC "-//W3C//DTD SVG 20010904//EN"
 "http://www.w3.org/TR/2001/REC-SVG-20010904/DTD/svg10.dtd">
<svg version="1.0" xmlns="http://www.w3.org/2000/svg"
 width="512.000000pt" height="512.000000pt" viewBox="0 0 512.000000 512.000000"
 preserveAspectRatio="xMidYMid meet">

<g transform="translate(0.000000,512.000000) scale(0.100000,-0.100000)"
fill="#000000" stroke="none">
<path d="M1950 4954 c-64 -17 -138 -62 -180 -110 -96 -110 -122 -278 -62 -402
l19 -40 -43 -17 c-25 -9 -70 -40 -101 -68 l-56 -52 -101 0 c-81 0 -114 -5
-167 -24 -86 -31 -163 -85 -218 -152 -24 -30 -56 -57 -71 -61 -45 -13 -63 -41
-58 -91 l5 -44 -33 7 c-41 9 -75 -6 -93 -44 -13 -28 -14 -28 -75 -22 -204 22
-396 -153 -396 -360 l0 -52 -45 -15 c-57 -20 -127 -68 -159 -110 -39 -51 -74
-136 -82 -196 -4 -31 -13 -70 -20 -88 -10 -24 -14 -90 -14 -256 0 -211 1 -224
20 -245 30 -32 82 -30 109 4 20 25 21 39 21 239 0 185 2 214 16 219 29 11
4764 7 4785 -4 18 -10 19 -27 19 -543 0 -401 -3 -536 -12 -545 -9 -9 -369 -12
-1559 -12 l-1548 0 -20 -26 c-26 -34 -26 -54 0 -88 l20 -26 1548 0 c1190 0
1550 -3 1559 -12 17 -17 17 -1069 0 -1086 -8 -8 -55 -12 -144 -12 -131 0 -133
0 -153 -26 -12 -15 -21 -34 -21 -44 0 -10 9 -29 21 -44 l20 -26 155 0 c170 0
192 5 237 60 15 17 31 47 37 68 6 23 10 234 10 569 0 453 -2 539 -15 578 -14
40 -14 50 0 90 13 39 15 125 15 578 0 335 -4 546 -10 569 -21 75 -89 128 -163
128 -34 0 -35 1 -46 59 -16 83 -62 169 -120 226 -27 26 -56 52 -64 57 -14 7
-11 18 20 80 49 95 57 195 23 294 -12 36 -19 68 -17 71 3 2 83 49 179 102 186
105 210 127 192 178 -5 15 -23 34 -39 42 -29 14 -34 12 -120 -33 l-90 -48 58
59 c64 65 74 106 37 143 -35 35 -75 26 -137 -32 l-56 -53 42 76 c45 84 49 107
23 137 -26 32 -63 37 -93 13 -15 -11 -70 -98 -124 -193 -53 -95 -98 -174 -99
-175 -2 -2 -22 7 -47 20 -36 18 -61 22 -140 22 -90 0 -99 -2 -174 -39 -60 -29
-102 -61 -170 -127 l-92 -89 -28 30 c-22 22 -102 70 -163 96 -2 1 22 90 53
198 30 108 55 204 55 214 0 31 -38 62 -75 62 -45 0 -65 -27 -90 -121 l-20 -74
-5 76 c-6 91 -24 119 -77 119 -51 0 -67 -27 -73 -118 l-5 -77 -19 73 c-24 95
-47 124 -94 120 -24 -2 -41 -11 -55 -30 l-21 -28 53 -192 c29 -106 54 -201 57
-210 3 -10 0 -18 -6 -18 -48 0 -178 -99 -215 -164 -9 -15 -13 -15 -28 -3 -17
11 -18 18 -8 53 25 91 7 218 -42 293 -23 34 -24 41 -14 93 9 52 8 61 -14 105
-33 65 -92 97 -165 88 l-52 -6 -6 43 c-29 192 -234 336 -427 300 l-60 -11 -42
40 c-50 49 -114 83 -185 98 -68 14 -104 13 -172 -5z m197 -159 c28 -14 68 -47
91 -74 49 -58 76 -67 144 -46 28 8 71 15 95 15 111 0 205 -89 215 -204 3 -28
0 -31 -92 -66 -169 -65 -263 -123 -378 -234 -85 -81 -152 -177 -202 -288 -19
-43 -38 -77 -42 -78 -3 0 -22 29 -42 64 -68 121 -175 253 -244 298 l-23 15 31
26 c28 24 85 47 120 47 20 1 55 29 69 57 19 37 13 82 -18 126 -39 58 -55 111
-47 163 22 161 181 249 323 179z m296 -827 c-194 -194 -355 -349 -359 -345
-13 12 35 146 86 244 87 167 186 268 344 354 82 44 226 99 261 99 14 0 -92
-112 -332 -352z m436 155 c-73 -222 -191 -384 -353 -488 l-59 -38 -71 13 c-39
7 -73 15 -76 17 -2 2 126 134 285 293 160 160 291 286 293 280 2 -5 -6 -40
-19 -77z m-1316 -37 c63 -30 132 -101 201 -205 48 -72 124 -210 150 -272 l15
-37 -77 -45 c-140 -82 -240 -190 -313 -339 l-33 -68 -342 0 -342 0 -36 38
c-112 114 -127 311 -33 433 68 89 176 147 241 128 67 -20 116 30 99 99 -25 99
86 244 222 289 65 21 182 12 248 -21z m2840 -77 c86 -27 205 -158 227 -248 14
-59 -3 -132 -45 -193 -25 -36 -25 -37 -80 -31 -75 8 -168 -12 -248 -54 -112
-59 -196 -171 -221 -296 l-13 -62 -258 -3 c-233 -2 -257 -1 -251 14 21 54 283
421 421 589 215 262 326 329 468 284z m-1427 -84 c-33 -77 -17 -118 70 -180
l59 -43 -3 -113 c-3 -100 18 -362 34 -441 l6 -28 -94 0 -93 1 -44 90 c-48 99
-155 225 -236 276 -25 15 -45 31 -45 34 0 4 12 15 28 25 94 62 225 221 288
352 38 80 60 99 30 27z m726 -51 c66 -33 108 -90 79 -108 -30 -19 -334 -451
-423 -600 -29 -48 -62 -61 -72 -28 -3 9 -13 86 -22 171 -20 190 -16 387 10
446 20 46 68 100 110 122 64 33 250 32 318 -3z m-3092 -231 c-83 -140 -89
-339 -15 -471 14 -25 25 -46 25 -48 0 -2 -97 -4 -215 -4 -242 0 -238 -2 -183
71 36 47 107 88 151 89 19 0 41 12 63 34 34 34 34 35 33 120 -1 120 32 187
116 230 45 24 49 20 25 -21z m1765 -178 c135 -35 263 -117 341 -217 37 -48 74
-109 74 -123 0 -3 -252 -5 -561 -5 l-560 0 28 53 c15 28 61 86 103 127 83 83
179 138 285 164 80 19 217 20 290 1z m2222 -103 c80 -42 143 -123 158 -205 l7
-37 -291 0 -291 0 0 28 c0 75 97 194 183 226 60 22 179 16 234 -12z"/>
<path d="M1946 2675 c-56 -20 -105 -63 -138 -122 -76 -134 -25 -298 114 -367
l52 -26 585 0 c550 0 589 2 627 19 52 24 111 83 135 135 21 47 25 139 7 198
-16 55 -83 126 -143 154 l-50 24 -575 -1 c-463 0 -583 -3 -614 -14z m814 -134
c0 -15 -75 -105 -121 -145 -24 -21 -66 -51 -94 -67 l-50 -29 -233 0 c-246 0
-277 5 -316 48 -10 12 -20 40 -23 64 -6 55 27 108 77 125 43 14 760 18 760 4z
m333 2 c81 -13 126 -98 91 -170 -32 -64 -63 -73 -257 -73 l-168 0 55 64 c30
35 69 91 88 125 l33 61 60 0 c33 0 77 -3 98 -7z"/>
<path d="M22 2267 c-21 -22 -22 -32 -22 -210 0 -141 4 -196 14 -222 13 -31 13
-39 0 -70 -12 -29 -14 -127 -14 -592 0 -523 2 -561 19 -599 10 -23 34 -52 52
-65 l34 -24 478 -3 c383 -2 477 -5 477 -16 0 -7 -11 -46 -25 -86 -14 -40 -25
-84 -25 -98 0 -45 30 -90 74 -112 42 -20 52 -20 1474 -20 989 0 1439 3 1459
11 42 16 72 48 83 91 9 33 7 50 -20 125 -16 48 -30 91 -30 95 0 4 78 8 174 8
l175 0 20 26 c26 34 26 54 0 88 l-20 26 -204 0 c-184 0 -204 2 -210 17 -37 94
-75 210 -75 229 0 13 42 141 94 284 52 144 98 275 101 291 5 20 0 43 -15 73
-39 82 92 76 -1537 76 -1419 0 -1449 0 -1480 -20 -37 -22 -63 -67 -63 -107 0
-15 41 -149 90 -299 50 -149 90 -282 90 -295 0 -13 -17 -74 -37 -136 l-37
-113 -467 0 c-257 0 -474 3 -483 6 -14 6 -16 63 -16 549 0 486 2 543 16 549 9
3 325 6 704 6 l689 0 20 26 c26 34 26 54 0 88 l-20 26 -702 2 -702 3 -5 186
c-4 166 -7 189 -24 208 -26 29 -76 28 -104 -2z m3928 -831 c0 -2 -41 -115 -91
-252 -122 -333 -122 -307 0 -633 50 -134 91 -246 91 -247 0 -2 -627 -4 -1394
-4 l-1393 0 88 262 c55 161 89 277 89 302 0 24 -37 150 -89 309 l-89 267 1394
0 c767 0 1394 -2 1394 -4z"/>
<path d="M3024 1270 c-201 -40 -345 -257 -304 -457 43 -209 236 -344 445 -311
166 25 298 157 323 323 42 271 -196 498 -464 445z m176 -161 c208 -94 191
-392 -26 -455 -192 -56 -359 116 -302 310 15 51 99 137 148 153 57 18 130 15
180 -8z"/>
<path d="M1641 1224 c-20 -26 -21 -35 -21 -366 l0 -339 25 -25 c26 -26 26 -26
183 -22 151 3 159 4 205 31 130 77 163 243 71 363 l-35 45 16 45 c8 24 15 62
15 83 0 56 -47 140 -98 176 -43 30 -46 30 -192 33 l-147 3 -22 -27z m288 -138
c28 -25 27 -73 -1 -103 -18 -20 -31 -23 -90 -23 l-68 0 0 76 0 76 69 -4 c50
-2 75 -9 90 -22z m46 -299 c18 -15 28 -36 32 -64 5 -37 2 -45 -25 -73 -29 -29
-33 -30 -121 -30 l-91 0 0 95 0 95 89 0 c79 0 93 -3 116 -23z"/>
<path d="M2390 1228 c-19 -21 -20 -33 -20 -368 l0 -347 23 -21 c29 -27 67 -28
98 -3 l24 19 0 350 c0 330 -1 351 -19 371 -26 28 -79 28 -106 -1z"/>
</g>
</svg>
