<?xml version="1.0" standalone="no"?>
<!DOCTYPE svg PUBLIC "-//W3C//DTD SVG 20010904//EN"
 "http://www.w3.org/TR/2001/REC-SVG-20010904/DTD/svg10.dtd">
<svg version="1.0" xmlns="http://www.w3.org/2000/svg"
 width="512.000000pt" height="512.000000pt" viewBox="0 0 512.000000 512.000000"
 preserveAspectRatio="xMidYMid meet">

<g transform="translate(0.000000,512.000000) scale(0.100000,-0.100000)"
fill="#000000" stroke="none">
<path d="M2435 4736 c-142 -45 -241 -152 -280 -301 -28 -108 -14 -216 39 -312
l27 -46 -29 -31 c-36 -39 -1557 -1719 -1630 -1801 -163 -183 -297 -453 -347
-700 -26 -128 -37 -354 -33 -683 4 -337 5 -344 67 -415 46 -52 109 -79 185
-79 103 -1 181 46 230 137 20 37 21 58 26 319 4 246 7 280 22 289 33 21 45 -7
50 -111 5 -109 22 -154 80 -209 97 -94 270 -87 359 15 55 62 62 91 67 277 l4
170 77 32 c42 17 493 211 1002 430 l925 399 12 -60 c12 -68 49 -119 108 -154
33 -19 51 -22 110 -20 85 4 136 33 175 101 21 37 25 57 29 181 l5 140 493 212
c271 117 512 224 536 238 57 33 119 104 153 175 21 45 28 75 31 148 6 118 -19
205 -81 289 -51 68 -286 300 -432 425 -454 390 -1002 699 -1595 900 -161 54
-182 59 -260 58 -47 0 -103 -6 -125 -13z m393 -200 c544 -198 971 -433 1379
-761 71 -56 161 -133 202 -171 l74 -68 -64 -16 c-87 -22 -144 -53 -198 -109
-56 -57 -95 -128 -116 -206 -8 -32 -17 -60 -19 -62 -2 -3 -40 26 -84 64 -432
372 -948 677 -1492 880 -79 29 -153 61 -163 71 -61 53 -79 194 -38 287 25 56
71 109 116 132 96 51 171 43 403 -41z m-343 -595 c540 -204 1019 -494 1482
-897 74 -64 132 -119 129 -122 -3 -2 -79 -37 -169 -77 -196 -85 -226 -103
-272 -159 -74 -91 -79 -113 -85 -382 -5 -220 -7 -244 -24 -263 -22 -24 -64
-27 -92 -7 -17 13 -20 31 -25 168 -4 120 -9 161 -23 188 -42 81 -110 124 -196
124 -50 0 -113 -26 -663 -264 l-608 -263 -50 56 c-31 35 -71 66 -107 84 -51
25 -68 28 -152 28 -82 -1 -102 -4 -150 -28 -101 -48 -174 -128 -201 -219 -13
-43 -12 -154 0 -197 10 -32 8 -37 -27 -75 -49 -54 -78 -101 -104 -172 -19 -52
-22 -85 -25 -284 -2 -130 -9 -237 -15 -253 -24 -61 -120 -77 -169 -28 -27 27
-29 35 -29 103 -1 142 -34 212 -115 243 -88 34 -192 -3 -231 -82 -17 -34 -19
-70 -24 -321 l-5 -284 -28 -24 c-51 -43 -142 -25 -166 34 -10 23 -12 134 -8
448 3 377 6 428 24 509 24 103 53 193 94 282 l27 62 44 -24 c63 -35 156 -49
226 -35 283 58 392 362 211 592 l-29 36 457 505 458 505 43 -38 c77 -68 123
-85 237 -85 87 0 107 3 155 26 156 75 235 233 200 400 -15 69 -72 165 -119
200 -33 24 -40 39 -18 39 7 0 71 -22 142 -49z m-198 -123 c40 -41 54 -79 55
-143 2 -168 -179 -267 -329 -180 -69 41 -72 57 -21 114 255 287 234 273 295
209z m2350 -459 c61 -29 120 -101 139 -167 33 -111 -6 -243 -88 -302 -42 -31
-956 -426 -965 -417 -15 16 11 79 50 122 38 41 67 56 272 145 127 55 236 108
243 117 19 26 15 55 -19 120 -63 123 -28 272 85 358 76 58 193 68 283 24z
m-1377 -1009 c11 -11 20 -33 20 -48 0 -28 -13 -34 -992 -455 -546 -234 -994
-424 -996 -422 -8 8 32 77 68 118 50 56 91 77 470 240 173 75 549 237 835 361
286 124 532 225 548 226 15 0 36 -9 47 -20z m-2408 -47 c33 -38 48 -83 48
-146 0 -52 -5 -71 -29 -109 -52 -82 -176 -121 -265 -84 -50 21 -52 33 -14 87
41 59 226 269 237 269 4 0 15 -8 23 -17z m839 -293 c20 -6 53 -25 75 -44 l38
-33 -29 -15 c-25 -13 -182 -81 -334 -145 l-33 -14 4 59 c6 91 58 153 155 188
46 16 77 17 124 4z"/>
<path d="M2719 3451 c-54 -53 -59 -75 -28 -115 32 -41 75 -36 126 17 23 23 42
49 43 57 5 32 -1 51 -20 70 -33 33 -67 25 -121 -29z"/>
<path d="M3062 3264 c-16 -11 -22 -25 -22 -51 0 -30 9 -44 49 -84 56 -57 88
-63 126 -24 38 37 32 68 -23 125 -53 54 -88 64 -130 34z"/>
<path d="M1784 3096 c-35 -35 -44 -50 -44 -78 0 -43 25 -68 70 -68 27 0 42 9
77 45 50 53 55 84 18 120 -37 38 -70 32 -121 -19z"/>
<path d="M2274 3090 c-110 -23 -198 -90 -246 -188 -31 -62 -33 -74 -33 -167 0
-91 3 -105 30 -158 90 -178 318 -246 498 -149 217 117 243 437 48 591 -76 61
-203 91 -297 71z m195 -173 c118 -78 119 -269 2 -352 -39 -28 -50 -30 -126
-30 -76 0 -87 2 -126 30 -59 42 -84 94 -84 175 0 90 34 147 107 185 73 36 165
33 227 -8z"/>
<path d="M3480 3053 c-74 -27 -65 -110 17 -152 73 -37 149 22 113 89 -18 33
-101 73 -130 63z"/>
<path d="M2934 2806 c-50 -50 -58 -92 -24 -126 34 -34 76 -26 126 24 51 51 58
90 21 124 -37 35 -73 28 -123 -22z"/>
<path d="M1475 2755 c-29 -28 -31 -45 -11 -84 56 -107 186 -122 186 -21 0 26
-10 43 -49 81 -56 57 -88 63 -126 24z"/>
<path d="M1279 2371 c-54 -54 -62 -84 -29 -119 34 -36 77 -29 127 20 49 48 57
94 23 128 -33 33 -67 25 -121 -29z"/>
<path d="M1795 2385 c-43 -42 -29 -92 35 -125 22 -11 51 -20 65 -20 48 0 78
54 59 105 -7 17 -94 65 -119 65 -9 0 -27 -11 -40 -25z"/>
<path d="M989 1721 c-54 -53 -59 -75 -28 -115 35 -44 77 -36 134 25 39 42 46
55 41 77 -4 15 -16 35 -28 45 -35 30 -66 21 -119 -32z"/>
<path d="M565 1520 c-21 -23 -24 -72 -7 -92 6 -8 32 -24 57 -37 53 -26 91 -20
114 20 22 39 7 74 -42 104 -53 30 -97 32 -122 5z"/>
</g>
</svg>
