<?xml version="1.0" standalone="no"?>
<!DOCTYPE svg PUBLIC "-//W3C//DTD SVG 20010904//EN"
 "http://www.w3.org/TR/2001/REC-SVG-20010904/DTD/svg10.dtd">
<svg version="1.0" xmlns="http://www.w3.org/2000/svg"
 width="64.000000pt" height="64.000000pt" viewBox="0 0 64.000000 64.000000"
 preserveAspectRatio="xMidYMid meet">

<g transform="translate(0.000000,64.000000) scale(0.100000,-0.100000)"
fill="#000000" stroke="none">
<path d="M139 550 c-82 -25 -114 -75 -110 -177 1 -38 49 -98 86 -107 24 -6 25
-10 25 -77 l0 -70 38 -16 c58 -26 254 -25 307 2 l40 20 3 76 c3 69 5 77 27 87
41 19 60 61 56 128 -1 26 -45 72 -74 76 -12 2 -42 -2 -67 -9 -70 -20 -103 -17
-131 13 -48 53 -131 75 -200 54z m124 -24 c18 -7 46 -27 62 -45 32 -35 86 -71
104 -71 20 0 12 17 -11 24 -19 6 -12 11 40 27 54 17 66 18 90 7 55 -26 65
-100 20 -148 -32 -34 -102 -24 -203 27 -66 34 -81 45 -83 67 -4 29 -22 26 -22
-5 0 -15 -7 -19 -35 -19 -28 0 -38 5 -47 25 -6 14 -15 25 -20 25 -10 0 -1 -38
13 -55 13 -17 -29 -39 -47 -24 -8 6 -18 9 -22 5 -4 -4 3 -16 16 -26 20 -17 31
-60 15 -60 -25 0 -72 43 -83 75 -40 121 88 224 213 171z m102 -201 c39 -19 87
-38 108 -41 34 -6 37 -9 37 -39 l0 -33 -52 15 c-53 16 -242 14 -281 -2 -16 -7
-18 -2 -15 56 3 56 6 65 28 77 36 19 95 8 175 -33z m99 -118 c51 -16 64 -43
15 -31 -42 11 -254 12 -291 1 -22 -6 -28 -4 -28 8 0 8 12 17 28 21 15 3 32 7
37 9 25 9 204 2 239 -8z m14 -51 c12 -4 22 -11 22 -16 0 -48 -322 -51 -337 -3
-11 33 224 48 315 19z"/>
</g>
</svg>
