<?xml version="1.0" standalone="no"?>
<!DOCTYPE svg PUBLIC "-//W3C//DTD SVG 20010904//EN"
 "http://www.w3.org/TR/2001/REC-SVG-20010904/DTD/svg10.dtd">
<svg version="1.0" xmlns="http://www.w3.org/2000/svg"
 width="64.000000pt" height="64.000000pt" viewBox="0 0 64.000000 64.000000"
 preserveAspectRatio="xMidYMid meet">

<g transform="translate(0.000000,64.000000) scale(0.100000,-0.100000)"
fill="#000000" stroke="none">
<path d="M261 584 c-26 -33 -28 -102 -5 -145 21 -42 14 -54 -45 -74 -28 -9
-60 -28 -71 -42 -21 -27 -27 -63 -10 -63 6 0 10 6 10 14 0 27 40 63 83 76 38
10 48 10 69 -4 21 -14 26 -14 53 0 25 13 37 14 70 4 47 -14 85 -46 85 -72 0
-10 5 -18 10 -18 17 0 11 36 -10 63 -11 14 -43 33 -71 42 -59 20 -66 32 -45
74 23 43 21 112 -5 145 -16 20 -29 26 -59 26 -30 0 -43 -6 -59 -26z m101 -11
c10 -9 18 -20 18 -25 0 -12 -74 -10 -88 4 -6 6 -15 8 -19 4 -14 -13 30 -36 69
-36 31 0 38 -4 38 -19 0 -37 -20 -71 -45 -81 -15 -6 -24 -14 -20 -20 3 -5 12
-7 20 -3 10 3 15 -2 15 -16 0 -17 -6 -21 -30 -21 -26 0 -30 3 -30 29 0 16 -7
42 -15 57 -20 39 -19 103 2 126 20 22 61 23 85 1z"/>
<path d="M120 563 c-8 -3 -21 -12 -27 -21 -15 -19 -17 -88 -3 -97 20 -12 10
-45 -15 -51 -33 -8 -55 -40 -55 -81 0 -26 6 -36 30 -48 33 -17 40 -18 40 -7 0
5 -12 14 -26 20 -21 10 -25 18 -22 45 2 26 11 36 41 52 33 17 37 23 33 48 -3
15 -9 41 -12 57 -11 51 36 81 67 44 12 -15 10 -16 -21 -9 -31 7 -33 6 -21 -9
7 -9 22 -16 32 -16 25 0 24 -18 -3 -47 -12 -13 -16 -23 -10 -23 7 0 12 -6 12
-13 0 -17 47 -40 55 -27 3 5 -4 12 -16 15 -16 5 -19 12 -14 28 24 75 17 118
-20 135 -14 7 -27 12 -28 11 -1 0 -9 -3 -17 -6z"/>
<path d="M457 542 c-19 -20 -23 -87 -7 -97 15 -9 12 -42 -5 -49 -8 -3 -15 -10
-15 -15 0 -7 10 -6 26 1 21 10 25 17 20 40 -3 15 -9 42 -12 58 -7 36 9 60 41
60 40 0 48 -60 13 -97 -12 -13 -16 -23 -10 -23 7 0 12 -6 12 -12 0 -7 17 -22
38 -33 29 -16 38 -27 40 -52 3 -27 -1 -35 -22 -45 -14 -6 -26 -15 -26 -20 0
-11 7 -10 40 7 24 12 30 22 30 48 0 41 -22 73 -56 81 -22 6 -25 11 -19 29 17
53 17 98 0 117 -23 25 -67 26 -88 2z"/>
<path d="M501 221 c-13 -17 -31 -31 -41 -31 -30 0 -31 -15 -5 -40 27 -25 46
-21 25 5 -11 14 -10 17 8 21 11 4 23 12 26 20 4 11 10 10 28 -8 13 -13 21 -27
19 -33 -2 -5 -3 -18 -3 -29 1 -14 -4 -17 -20 -13 -12 3 -35 -1 -52 -11 -23
-12 -27 -17 -14 -20 9 -2 25 1 36 7 11 6 24 6 33 0 27 -17 39 -10 39 25 0 18
7 39 15 46 22 18 18 30 -10 30 -17 0 -31 10 -44 31 l-19 30 -21 -30z"/>
<path d="M96 215 c-10 -16 -26 -25 -41 -25 -30 0 -32 -11 -5 -35 14 -12 17
-25 13 -46 -6 -31 4 -36 38 -19 13 8 25 7 40 0 11 -6 25 -9 32 -7 7 2 -2 11
-20 20 -17 9 -39 14 -47 11 -11 -4 -16 0 -16 14 0 12 -5 24 -10 27 -7 4 -1 16
15 30 l25 24 25 -23 c18 -17 21 -26 13 -34 -23 -23 3 -25 27 -2 32 30 32 40 0
40 -15 0 -31 9 -41 25 -9 14 -20 25 -24 25 -4 0 -15 -11 -24 -25z"/>
<path d="M299 191 c-11 -18 -28 -31 -48 -36 -36 -8 -38 -15 -10 -41 17 -15 20
-26 15 -56 -7 -43 -6 -44 34 -23 27 14 33 14 60 0 40 -21 41 -20 34 23 -5 30
-2 41 15 56 28 26 26 33 -10 41 -20 5 -37 18 -48 36 -9 16 -18 29 -21 29 -3 0
-12 -13 -21 -29z m36 -31 c4 -13 15 -20 31 -20 24 0 24 -1 10 -22 -9 -12 -16
-33 -16 -46 0 -20 -3 -21 -20 -12 -14 8 -26 8 -40 0 -17 -9 -20 -8 -20 10 0
11 -7 32 -16 45 -16 24 -16 25 9 25 17 0 28 7 32 20 3 11 10 20 15 20 5 0 12
-9 15 -20z"/>
</g>
</svg>
